<?xml version="1.0" encoding="utf-8"?>
<!-- Generator: Adobe Illustrator 25.1.0, SVG Export Plug-In . SVG Version: 6.00 Build 0)  -->
<svg version="1.1" id="Слой_1" xmlns="http://www.w3.org/2000/svg" xmlns:xlink="http://www.w3.org/1999/xlink" x="0px" y="0px"
	 viewBox="0 0 172 172" style="enable-background:new 0 0 172 172;" xml:space="preserve">
<style type="text/css">
	.st0{clip-path:url(#SVGID_2_);}
	.st1{fill:none;stroke:#ffffff;stroke-width:7;stroke-miterlimit:10;}
	.st2{fill:none;}
</style>
<g>
	<g id="svg_1">
		<g>
			<g>
				<g>
					<defs>
						<rect id="SVGID_1_" x="-38.3" y="-39.1" width="248.6" height="248.5"/>
					</defs>
					<clipPath id="SVGID_2_">
						<use xlink:href="#SVGID_1_"  style="overflow:visible;"/>
					</clipPath>
					<g id="svg_3" class="st0">
						<path id="svg_4" class="st1" d="M141.5,34.3c-10.6-4.8-21.6-8.3-32.9-10.1c-1.4,2.6-3.1,6-4.2,8.7C92.3,31,80,31,67.8,32.9
							c-1.3-3-2.7-5.9-4.3-8.7C52,26.1,41,29.6,30.5,34.5C9.6,65.5,4.1,95.8,6.8,125.7c12.3,9.1,25.9,16.1,40.4,20.4
							c3.4-4.5,6.3-9.1,8.7-14c-4.8-1.7-9.2-3.9-13.6-6.5c1.2-0.9,2.2-1.7,3.4-2.6c25.6,12.1,55.3,12.1,80.9,0
							c1.2,0.9,2.2,1.7,3.4,2.6c-4.3,2.6-8.9,4.8-13.8,6.5c2.5,4.9,5.4,9.5,8.7,14c14.6-4.5,28.3-11.3,40.4-20.4
							C168.4,90.9,159.5,60.9,141.5,34.3L141.5,34.3z M59.4,107.1c-8,0-14.3-7.2-14.3-16.1s6.4-16.2,14.3-16.2
							c8.1,0,14.4,7.2,14.4,16.2C73.6,99.9,67.5,107.1,59.4,107.1z M112.5,107.1c-8,0-14.3-7.2-14.3-16.1s6.4-16.2,14.3-16.2
							c8.1,0,14.4,7.2,14.3,16.2C126.8,100,120.5,107.1,112.5,107.1z"/>
					</g>
				</g>
			</g>
		</g>
	</g>
	<path id="svg_5" class="st2" d="M-37.5-0.3h161.2v122.4H-37.5V-0.3z" fill="#fff"/>
</g>
</svg>
