<svg xmlns="http://www.w3.org/2000/svg" viewBox="0 0 24 24"><path d="M11 0a11 11 0 1011 11A11.012 11.012 0 0011 0zm0 21a10 10 0 1110-10 10.011 10.011 0 01-10 10zm4.464-15.366a2.405 2.405 0 00-.821.155c-.114.047-2.402.985-3.101 1.29L4.489 9.984c-.827.323-1.284.801-1.342 1.416a1.414 1.414 0 00.677 1.298l.097.06.108.038c.044.015 1.091.373 2.01.649a3.527 3.527 0 001.01.156 2.31 2.31 0 001.203-.296l.07-.047-.001.044a1.617 1.617 0 00.602 1.219c.67.566 2.133 1.523 2.836 1.982.15.099.257.168.296.195a3.755 3.755 0 001.939.752 1.71 1.71 0 00.39-.044 1.859 1.859 0 001.34-1.665l.755-4.736.198-1.295c.193-1.254.304-1.98.327-2.31a1.626 1.626 0 00-.388-1.289 1.534 1.534 0 00-1.152-.477zm.027 5.214l-.759 4.765s-.06.698-.576.82a.707.707 0 01-.162.017 2.892 2.892 0 01-1.356-.564c-.121-.091-2.276-1.457-3.065-2.124a.575.575 0 01.03-.972 115.996 115.996 0 003.187-3.034c.236-.236.472-.676.196-.676a2.37 2.37 0 00-.985.494l-4.279 2.883a1.353 1.353 0 01-.673.144 2.514 2.514 0 01-.723-.114c-.91-.273-1.972-.637-1.972-.637s-.729-.456.515-.941l7.071-2.913c.698-.304 3.065-1.275 3.065-1.275a1.44 1.44 0 01.46-.087c.286 0 .592.128.542.694-.03.425-.273 1.912-.516 3.52z" fill="#fff"></path></svg>